<svg version="1.1" id="therapyDen--SM" xmlns="http://www.w3.org/2000/svg" viewBox="0 0 152 130">
<g>
	<path fill="#69C9BA" d="M55.9,23.7l-2.6-0.1V20c0-1.8-1.2-3.4-2.9-4L46.8,15C38.4,12.4,30,18.7,30,27.4v70l110.5,0.7V57.7
		c0-5.5-3.4-10.4-8.6-12.2L58.3,18.6c-1.2-0.4-2.4,0.4-2.4,1.7L55.9,23.7z"/>
	<path fill="#F5C400" d="M9.3,114.5l122.4,6.6l8.7-23L30,97.4L8.5,111.8C7.3,112.6,7.8,114.5,9.3,114.5z"/>
	<path fill="#00B09A" d="M51.5,97.6v-8.7h4.2c4.9,0,8.5,3.8,8.5,8.7l7.2,0c0-8.4-6.9-15.2-15.3-15.2H45.4c-0.4,0-0.8,0.4-0.8,0.8
		v14.2L51.5,97.6z"/>
	<path fill="#00B09A" d="M96,97.8v-2.7c0-0.4-0.4-0.8-0.8-0.8h-9.9v-5.4h12.1c0.5,0,0.8-0.4,0.8-0.8v-4.8c0-0.4-0.3-0.8-0.8-0.8h-18
		c-0.5,0-0.8,0.4-0.8,0.8v14.4L96,97.8z"/>
	<g>
		<path fill="#00B09A" d="M134,98.1V83.3c0-0.4-0.4-0.8-0.8-0.8h-5.2c-0.5,0-0.8,0.4-0.8,0.8V98L134,98.1z"/>
		<path fill="#00B09A" d="M114.6,98v-2.1h0l2.1,2.1l9.5,0.1l-16.6-16h-1.1c-0.4,0-0.8,0.3-0.8,0.8l0,15.1L114.6,98z"/>
	</g>
	<path fill="#FFFFFF" d="M38.4,77.5c0-0.4,0.3-0.8,0.8-0.8h10.6c8.4,0,15.3,6.8,15.3,15.2c0,8.5-6.9,15.3-15.3,15.3H39.2
		c-0.4,0-0.8-0.4-0.8-0.8V77.5z M49.4,100.7c4.9,0,8.5-3.9,8.5-8.8c0-4.9-3.6-8.8-8.5-8.8h-4.2v17.6H49.4z"/>
	<path fill="#FFFFFF" d="M72.2,77.5c0-0.4,0.3-0.8,0.8-0.8h18c0.5,0,0.8,0.4,0.8,0.8v4.8c0,0.4-0.3,0.8-0.8,0.8H79v5.4H89
		c0.4,0,0.8,0.4,0.8,0.8V94c0,0.5-0.4,0.8-0.8,0.8H79v5.9h12.1c0.5,0,0.8,0.4,0.8,0.8v4.7c0,0.4-0.3,0.8-0.8,0.8h-18
		c-0.5,0-0.8-0.4-0.8-0.8V77.5z"/>
	<path fill="#FFFFFF" d="M101.5,77c0-0.4,0.4-0.8,0.8-0.8h1.1l17.4,16.7h0V77.5c0-0.4,0.3-0.8,0.8-0.8h5.2c0.4,0,0.8,0.4,0.8,0.8
		v29.3c0,0.4-0.4,0.8-0.8,0.8h-0.7c-0.1,0-0.5-0.1-0.6-0.2l-17.2-17.3h0v16.3c0,0.4-0.3,0.8-0.8,0.8h-5.2c-0.4,0-0.8-0.4-0.8-0.8
		L101.5,77z"/>
	<g>
		<path fill="#FFFFFF" d="M41.7,58.7H39c-0.2,0-0.3-0.2-0.3-0.3v-1.5c0-0.2,0.1-0.3,0.3-0.3h7.9c0.2,0,0.3,0.2,0.3,0.3v1.5
			c0,0.2-0.1,0.3-0.3,0.3h-2.8v10.1c0,0.2-0.2,0.3-0.3,0.3h-1.7c-0.2,0-0.3-0.2-0.3-0.3V58.7z"/>
		<path fill="#FFFFFF" d="M50.9,56.9c0-0.2,0.2-0.3,0.3-0.3h1.7c0.2,0,0.3,0.2,0.3,0.3v4.8h5.9v-4.8c0-0.2,0.1-0.3,0.3-0.3h1.7
			c0.2,0,0.3,0.2,0.3,0.3v11.9c0,0.2-0.2,0.3-0.3,0.3h-1.7c-0.2,0-0.3-0.2-0.3-0.3v-5h-5.9v5c0,0.2-0.1,0.3-0.3,0.3h-1.7
			c-0.2,0-0.3-0.2-0.3-0.3V56.9z"/>
		<path fill="#FFFFFF" d="M66.5,56.9c0-0.2,0.1-0.3,0.3-0.3h7.3c0.2,0,0.3,0.2,0.3,0.3v1.5c0,0.2-0.1,0.3-0.3,0.3h-5.3v3h4.4
			c0.2,0,0.3,0.2,0.3,0.3v1.5c0,0.2-0.2,0.3-0.3,0.3h-4.4V67h5.3c0.2,0,0.3,0.2,0.3,0.3v1.5c0,0.2-0.1,0.3-0.3,0.3h-7.3
			c-0.2,0-0.3-0.2-0.3-0.3V56.9z"/>
		<path fill="#FFFFFF" d="M78.9,56.9c0-0.2,0.1-0.3,0.3-0.3h5.1c2.2,0,3.9,1.7,3.9,3.9c0,1.7-1.1,3-2.7,3.6l2.5,4.6
			c0.1,0.2,0,0.5-0.3,0.5h-1.9c-0.2,0-0.3-0.1-0.3-0.2l-2.4-4.8h-2v4.6c0,0.2-0.2,0.3-0.3,0.3h-1.7c-0.2,0-0.3-0.2-0.3-0.3V56.9z
			 M84.2,62.3c1,0,1.8-0.8,1.8-1.8c0-1-0.8-1.7-1.8-1.7h-2.9v3.6H84.2z"/>
		<path fill="#FFFFFF" d="M91,68.7l5.6-12.1c0.1-0.1,0.1-0.2,0.3-0.2h0.2c0.2,0,0.3,0.1,0.3,0.2l5.5,12.1c0.1,0.2,0,0.5-0.3,0.5
			h-1.6c-0.3,0-0.4-0.1-0.5-0.4l-0.9-1.9h-5.4l-0.9,1.9c-0.1,0.2-0.2,0.4-0.5,0.4h-1.6C91.1,69.2,90.9,68.9,91,68.7z M98.8,64.9
			l-1.8-4H97l-1.8,4H98.8z"/>
		<path fill="#FFFFFF" d="M106.4,56.9c0-0.2,0.1-0.3,0.3-0.3h4.2c2.2,0,4,1.8,4,4c0,2.2-1.8,4.1-4,4.1h-2.3v4.2
			c0,0.2-0.2,0.3-0.3,0.3h-1.7c-0.2,0-0.3-0.2-0.3-0.3V56.9z M110.8,62.4c1,0,1.9-0.8,1.9-1.9c0-1-0.8-1.7-1.9-1.7h-2.1v3.6H110.8z"
			/>
		<path fill="#FFFFFF" d="M121.3,63.1l-4.1-6c-0.1-0.2,0-0.5,0.3-0.5h1.8c0.1,0,0.2,0.1,0.3,0.2l2.9,4.1l2.9-4.1
			c0.1-0.1,0.1-0.2,0.3-0.2h1.9c0.3,0,0.4,0.3,0.3,0.5l-4.2,6v5.7c0,0.2-0.2,0.3-0.3,0.3h-1.7c-0.2,0-0.3-0.2-0.3-0.3V63.1z"/>
	</g>
	<path fill="#FFFFFF" d="M59.1,42.4c0,2.5-2,4.6-4.6,4.6c-2.5,0-4.6-2-4.6-4.6c0-2.5,2-4.6,4.6-4.6C57.1,37.8,59.1,39.8,59.1,42.4"
		/>
	<path fill="#EC6C52" d="M71.7,40.1c-1.8-2.7-6.2-4.6-9-5.3c-2.9-0.7-4.5-2.3-5.1-5.2c-0.5-2.8-1-5.6-1-5.6c-0.2-1-0.9-1.6-2-1.6
		s-1.8,0.6-2,1.6c0,0-0.5,2.8-1,5.6c-0.5,2.9-2.2,4.5-5.1,5.2c-2.8,0.7-7.3,2.6-9,5.3c-0.1,0.1-0.2,0.1-0.2,0.2
		c0,0.9,7.7,1.6,17.3,1.6s17.3-0.7,17.3-1.6C71.8,40.2,71.8,40.1,71.7,40.1z"/>
</g>
</svg>
